<svg width="20" height="21" viewBox="0 0 20 21" fill="none" xmlns="http://www.w3.org/2000/svg">
<path d="M15.8333 17.1667H4.16667C3.94565 17.1667 3.73369 17.2545 3.57741 17.4107C3.42113 17.567 3.33333 17.779 3.33333 18C3.33333 18.221 3.42113 18.433 3.57741 18.5892C3.73369 18.7455 3.94565 18.8333 4.16667 18.8333H15.8333C16.0543 18.8333 16.2663 18.7455 16.4226 18.5892C16.5789 18.433 16.6667 18.221 16.6667 18C16.6667 17.779 16.5789 17.567 16.4226 17.4107C16.2663 17.2545 16.0543 17.1667 15.8333 17.1667ZM9.40833 15.2583C9.48759 15.3342 9.58104 15.3937 9.68333 15.4333C9.78308 15.4774 9.89094 15.5002 10 15.5002C10.1091 15.5002 10.2169 15.4774 10.3167 15.4333C10.419 15.3937 10.5124 15.3342 10.5917 15.2583L13.925 11.925C14.0819 11.7681 14.1701 11.5552 14.1701 11.3333C14.1701 11.1114 14.0819 10.8986 13.925 10.7417C13.7681 10.5847 13.5553 10.4966 13.3333 10.4966C13.1114 10.4966 12.8986 10.5847 12.7417 10.7417L10.8333 12.6583V2.99999C10.8333 2.77898 10.7455 2.56701 10.5893 2.41073C10.433 2.25445 10.221 2.16666 10 2.16666C9.77899 2.16666 9.56703 2.25445 9.41075 2.41073C9.25446 2.56701 9.16667 2.77898 9.16667 2.99999V12.6583L7.25833 10.7417C7.18064 10.664 7.08839 10.6023 6.98688 10.5603C6.88536 10.5182 6.77655 10.4966 6.66667 10.4966C6.55678 10.4966 6.44798 10.5182 6.34646 10.5603C6.24494 10.6023 6.1527 10.664 6.075 10.7417C5.9973 10.8194 5.93567 10.9116 5.89362 11.0131C5.85157 11.1146 5.82992 11.2234 5.82992 11.3333C5.82992 11.4432 5.85157 11.552 5.89362 11.6535C5.93567 11.755 5.9973 11.8473 6.075 11.925L9.40833 15.2583Z" fill="white"/>
</svg>
