<svg width="170" height="136" viewBox="0 0 170 136" fill="none" xmlns="http://www.w3.org/2000/svg">
<g clip-path="url(#clip0_4_3840)">
<path d="M149.337 28.8531C147.071 26.4576 144.805 24.1485 143.143 22.4868C141.654 20.9978 141.654 20.9762 141.654 20.933C143.726 22.6595 145.711 24.4722 147.61 26.3929C150.912 29.6947 153.955 33.2339 156.717 37.0105C156.998 37.3989 157.3 37.809 157.58 38.1974V38.2406C154.861 35.1114 152.207 31.8959 149.358 28.8531" fill="url(#paint0_linear_4_3840)"/>
<path d="M149.337 38.4563C142.776 32.2843 140.208 27.2993 142.323 26.9755C145.819 26.4145 157.106 38.6074 157.602 43.5062C157.3 45.8584 150.157 39.2332 149.337 38.4563Z" fill="url(#paint1_linear_4_3840)"/>
<path d="M149.337 57.2314C141.978 52.4405 139.388 44.0457 143.661 43.0098C148.236 41.8877 157.235 51.0162 157.602 57.145C157.3 61.418 151.387 58.5693 149.337 57.2314Z" fill="url(#paint2_linear_4_3840)"/>
<path d="M149.337 82.5668C141.589 80.6677 139.172 70.158 144.222 66.9425C149.013 63.8997 157.257 70.0717 157.602 76.9559C157.343 82.1352 152.617 83.3437 149.337 82.5452" fill="url(#paint3_linear_4_3840)"/>
<path d="M149.337 110.125C142.539 111.657 139.582 103.802 143.143 97.9753C147.287 91.199 156.199 92.7744 157.451 98.8601C157.537 99.2701 157.559 99.8312 157.58 100.241C157.3 105.766 152.487 109.391 149.315 110.103" fill="url(#paint4_linear_4_3840)"/>
<path d="M164.875 53.0447C161.407 46.3692 159.645 42.8444 159.587 42.4703C159.587 42.4703 159.674 42.4056 159.717 42.384C162.458 44.4341 169.385 59.9073 169.86 63.4465C169.73 63.2739 169.507 62.8351 169.191 62.1301C168.349 60.1879 167.184 57.5119 164.853 53.0447" fill="url(#paint5_linear_4_3840)"/>
<path d="M164.875 62.3028C158.444 52.6563 159.307 50.4335 160.364 50.7141C163.558 51.5773 169.579 64.3529 169.86 68.5611C169.86 68.6474 169.838 68.7553 169.773 68.8416C169.622 68.8416 169.255 68.8848 164.853 62.3028" fill="url(#paint6_linear_4_3840)"/>
<path d="M164.875 76.6753C159.523 72.3593 158.293 65.5614 161.033 65.1945C164.421 64.7414 169.644 73.4814 169.86 77.6249C169.687 80.5167 164.918 76.7185 164.875 76.6753Z" fill="url(#paint7_linear_4_3840)"/>
<path d="M164.875 94.3282C159.998 94.6734 157.991 87.4008 161.033 84.2933C164.076 81.1641 169.666 85.0917 169.86 89.3862C169.709 92.537 166.795 94.1987 164.875 94.3282Z" fill="url(#paint8_linear_4_3840)"/>
<path d="M101.536 2.54649C98.6874 1.92066 91.8895 0.431609 90.5731 0.0431609C90.5731 0.0431609 90.5731 0.0215805 90.5731 0C93.0549 0.194224 95.515 0.49635 97.9321 0.884798C102.744 1.66169 107.427 2.82704 111.959 4.33767C112.758 4.59664 113.556 4.87718 114.355 5.17931H114.398C113.556 5.13615 106.931 3.71184 101.536 2.52491" fill="url(#paint9_linear_4_3840)"/>
<path d="M101.536 16.2069C92.7743 14.2431 87.7893 9.34434 92.019 6.88417C97.522 3.66869 113.707 7.66107 114.398 13.7683C113.945 17.5665 106.262 17.286 101.536 16.2069Z" fill="url(#paint10_linear_4_3840)"/>
<path d="M101.536 42.9667C91.76 41.0892 87.0123 32.0038 93.357 27.2777C99.8958 22.4221 113.815 26.8892 114.398 35.9746C113.966 42.4056 106.607 43.9378 101.536 42.9451" fill="url(#paint11_linear_4_3840)"/>
<path d="M101.536 79.0708C90.6595 77.668 86.4729 64.2234 95.0404 58.2241C102.227 53.1958 113.88 57.7061 114.42 68.2806C113.988 76.8048 106.629 79.7182 101.558 79.0708" fill="url(#paint12_linear_4_3840)"/>
<path d="M101.536 118.326C91.2205 118.002 86.7534 105.917 94.1554 98.45C101.169 91.3716 113.815 94.6087 114.398 106.176C113.945 115.304 106.262 118.477 101.536 118.326Z" fill="url(#paint13_linear_4_3840)"/>
<path d="M127.433 16.2717C120.527 12.4303 116.254 8.65376 118.282 8.20058C121.8 7.42368 137.748 16.9622 138.374 20.1993C137.899 22.0768 127.54 16.3364 127.433 16.2717Z" fill="url(#paint14_linear_4_3840)"/>
<path d="M127.433 34.5503C119.318 30.7953 114.981 23.2853 119.664 21.1704C125.275 18.6455 137.856 26.9108 138.374 33.4281C138.007 37.7658 131.468 36.4062 127.433 34.5503Z" fill="url(#paint15_linear_4_3840)"/>
<path d="M127.433 62.907C118.498 60.2958 114.42 49.1171 121.002 45.2974C126.871 41.9092 137.878 47.9733 138.374 56.7782C138.007 63.1012 131.749 64.1587 127.433 62.907Z" fill="url(#paint16_linear_4_3840)"/>
<path d="M127.433 97.7379C118.585 97.2199 114.441 84.8759 121.002 78.5744C126.871 72.9419 137.899 76.9559 138.374 87.1203C138.007 94.8677 131.749 97.9968 127.433 97.7379Z" fill="url(#paint17_linear_4_3840)"/>
<path d="M45.4269 8.78326C42.2977 10.1428 39.2333 11.675 36.0178 12.8835C36.0178 12.8835 36.0178 12.8835 36.0178 12.862C37.7443 11.8261 39.5139 10.8334 41.305 9.88386C45.4916 7.72582 49.8509 5.8699 54.3828 4.35927C55.5266 3.97082 56.6703 3.62553 57.8141 3.28024H57.8572C57.1235 3.66869 55.5697 4.35927 45.4269 8.78326Z" fill="url(#paint18_linear_4_3840)"/>
<path d="M45.4268 21.4725C39.4274 23.4364 34.3776 22.9616 36.4277 19.1203C39.9454 12.5598 56.5407 6.64678 57.814 11.5024C57.8571 11.6534 57.8571 11.8477 57.8787 11.9987C57.4255 16.099 50.0019 19.9835 45.4484 21.4725" fill="url(#paint19_linear_4_3840)"/>
<path d="M45.4269 46.3548C38.1758 47.5202 33.126 42.6861 37.7227 35.9746C43.3983 27.6661 56.735 26.2634 57.8141 33.8813C57.8572 34.1403 57.8572 34.4856 57.8788 34.7661C57.4256 41.4776 50.3256 45.5995 45.4485 46.3764" fill="url(#paint20_linear_4_3840)"/>
<path d="M45.4269 79.9124C36.8594 79.524 32.2197 69.2517 39.7297 61.9359C46.2685 55.5481 57.3393 57.6198 57.8788 67.7842C57.4256 76.5243 50.3257 80.1282 45.4485 79.9124" fill="url(#paint21_linear_4_3840)"/>
<path d="M45.4269 116.383C35.5646 114.053 32.5433 101.644 40.5281 96.2704C47.2396 91.7601 57.3608 96.3136 57.8572 106.543C57.404 115.261 50.304 117.549 45.4269 116.405" fill="url(#paint22_linear_4_3840)"/>
<path d="M72.2513 6.15042C65.0219 6.71151 60.2526 5.76198 61.6338 4.03554C63.835 1.27324 85.1996 -1.89908 86.1491 2.0933C85.6744 4.1866 77.7328 5.71881 72.2729 6.15042" fill="url(#paint23_linear_4_3840)"/>
<path d="M72.2513 26.9108C63.058 27.0619 58.3535 21.5804 63.4249 16.6169C69.6185 10.5528 85.437 10.7902 86.1491 18.7318C85.6743 24.2348 77.7327 26.8245 72.2729 26.9108" fill="url(#paint24_linear_4_3840)"/>
<path d="M72.2513 59.1089C62.0438 58.5909 57.7061 48.405 64.8708 41.8013C72.0355 35.2193 85.5017 37.7442 86.1276 48.0381C85.6312 56.1308 77.7112 59.3678 72.2513 59.1089Z" fill="url(#paint25_linear_4_3840)"/>
<path d="M72.2513 98.6874C61.6338 97.5005 57.5551 83.8185 65.734 76.848C73.093 70.5681 85.5449 74.5605 86.1276 86.1923C85.6312 95.8388 77.7112 99.3132 72.2513 98.6874Z" fill="url(#paint26_linear_4_3840)"/>
<path d="M72.2513 135.871C61.5258 134.338 57.5119 122.275 65.734 116.319C73.093 110.988 85.5233 115.067 86.1275 125.533C85.6312 133.971 77.7112 136.669 72.2513 135.892" fill="url(#paint27_linear_4_3840)"/>
<path d="M4.94195 44.5636C2.52494 48.5344 1.25169 51.0593 0.0216064 53.4979C0.712181 51.9657 1.44592 50.4551 2.22281 48.9445C4.38086 44.7579 6.86261 40.7655 9.62491 37.0105C10.5313 35.7804 11.4592 34.5935 12.4088 33.4065L12.4519 33.3634C9.97019 37.0968 7.3158 40.7223 4.96353 44.5636" fill="url(#paint28_linear_4_3840)"/>
<path d="M4.9419 51.7283C0.690548 57.4256 0.366841 57.4687 0.0862952 57.5119C-0.517957 56.9076 2.54647 50.1961 4.9419 46.4195C10.0133 38.3916 12.085 38.5427 12.1066 38.5427C12.3656 38.5858 12.4087 38.8664 12.4303 39.1038C12.2361 41.1323 9.84066 45.1463 4.9419 51.7283Z" fill="url(#paint29_linear_4_3840)"/>
<path d="M4.94187 65.7556C3.6902 66.7699 -0.345343 69.7912 0.0215244 66.5325C0.690518 60.49 9.68957 48.9013 12.1066 52.6347C12.3655 53.0448 12.4087 53.6059 12.4303 54.0375C12.1282 58.742 7.57468 63.6192 4.94187 65.7556Z" fill="url(#paint30_linear_4_3840)"/>
<path d="M4.94192 84.6601C-0.0647489 85.2428 -2.02857 80.5382 2.74071 74.7763C7.14312 69.4675 11.8908 70.3738 12.3872 74.9489C12.4088 75.1647 12.4088 75.4668 12.4303 75.6826C12.1714 80.7972 8.41637 84.2501 4.94192 84.6601Z" fill="url(#paint31_linear_4_3840)"/>
<path d="M4.94196 105.248C-0.0431242 102.205 -2.43855 94.5655 3.77662 93.0765C7.63952 92.1701 12.1498 95.4072 12.4304 101.126C12.1714 106.327 8.33009 107.298 4.94196 105.226" fill="url(#paint32_linear_4_3840)"/>
<path d="M22.1848 27.4503C15.5596 32.7807 14.9769 32.457 14.7827 32.3491C14.0705 29.7594 29.7595 15.7753 32.2844 16.7464C32.3923 16.7896 32.457 16.9406 32.4786 17.0485C32.047 19.3577 24.4939 25.5944 22.1848 27.4503Z" fill="url(#paint33_linear_4_3840)"/>
<path d="M22.1848 42.9883C17.8039 45.47 13.8979 45.9448 14.8906 42.1035C16.7249 35.0035 29.22 25.7239 32.0254 29.371C32.3707 29.8242 32.4355 30.4069 32.4786 30.8816C32.0902 35.7157 26.1124 40.7871 22.1848 42.9883Z" fill="url(#paint34_linear_4_3840)"/>
<path d="M22.1847 67.0936C16.1422 68.41 12.2793 64.0076 16.5522 57.1666C21.4078 49.3761 30.6658 47.2612 32.2844 53.5627C32.4139 54.059 32.457 54.728 32.4786 55.2459C32.1117 61.9359 26.2418 66.1872 22.1847 67.072" fill="url(#paint35_linear_4_3840)"/>
<path d="M22.1847 96.702C14.7394 95.3208 11.6103 85.1564 18.9692 79.7829C24.5801 75.7042 32.047 78.2507 32.457 86.9692C32.0901 94.9324 26.2202 97.4573 22.1631 96.702" fill="url(#paint36_linear_4_3840)"/>
<path d="M22.1847 124.541C14.6963 120.527 11.5671 110.341 18.9692 108.377C24.5801 106.866 32.047 111.895 32.457 119.685C32.1117 125.987 26.954 127.109 22.1631 124.541" fill="url(#paint37_linear_4_3840)"/>
</g>
<defs>
<linearGradient id="paint0_linear_4_3840" x1="141.654" y1="29.5868" x2="157.602" y2="29.5868" gradientUnits="userSpaceOnUse">
<stop stop-color="#2760F0"/>
<stop offset="1" stop-color="#0BD0F9"/>
</linearGradient>
<linearGradient id="paint1_linear_4_3840" x1="141.589" y1="35.4567" x2="2.158" y2="35.4567" gradientUnits="userSpaceOnUse">
<stop stop-color="#2760F0"/>
<stop offset="1" stop-color="#0BD0F9"/>
</linearGradient>
<linearGradient id="paint2_linear_4_3840" x1="141.589" y1="51.1673" x2="2.15804" y2="51.1673" gradientUnits="userSpaceOnUse">
<stop stop-color="#2760F0"/>
<stop offset="1" stop-color="#0BD0F9"/>
</linearGradient>
<linearGradient id="paint3_linear_4_3840" x1="141.568" y1="74.4741" x2="2.15805" y2="74.4741" gradientUnits="userSpaceOnUse">
<stop stop-color="#2760F0"/>
<stop offset="1" stop-color="#0BD0F9"/>
</linearGradient>
<linearGradient id="paint4_linear_4_3840" x1="141.611" y1="101.946" x2="2.15816" y2="101.946" gradientUnits="userSpaceOnUse">
<stop stop-color="#2760F0"/>
<stop offset="1" stop-color="#0BD0F9"/>
</linearGradient>
<linearGradient id="paint5_linear_4_3840" x1="159.587" y1="52.9153" x2="169.86" y2="52.9153" gradientUnits="userSpaceOnUse">
<stop stop-color="#2760F0"/>
<stop offset="1" stop-color="#0BD0F9"/>
</linearGradient>
<linearGradient id="paint6_linear_4_3840" x1="159.631" y1="59.7779" x2="169.86" y2="59.7779" gradientUnits="userSpaceOnUse">
<stop stop-color="#2760F0"/>
<stop offset="1" stop-color="#0BD0F9"/>
</linearGradient>
<linearGradient id="paint7_linear_4_3840" x1="159.631" y1="71.9492" x2="169.86" y2="71.9492" gradientUnits="userSpaceOnUse">
<stop stop-color="#2760F0"/>
<stop offset="1" stop-color="#0BD0F9"/>
</linearGradient>
<linearGradient id="paint8_linear_4_3840" x1="159.587" y1="88.7604" x2="169.86" y2="88.7604" gradientUnits="userSpaceOnUse">
<stop stop-color="#2760F0"/>
<stop offset="1" stop-color="#0BD0F9"/>
</linearGradient>
<linearGradient id="paint9_linear_4_3840" x1="90.5947" y1="2.61123" x2="114.42" y2="2.61123" gradientUnits="userSpaceOnUse">
<stop stop-color="#2760F0"/>
<stop offset="1" stop-color="#0BD0F9"/>
</linearGradient>
<linearGradient id="paint10_linear_4_3840" x1="90.5084" y1="11.3082" x2="114.42" y2="11.3082" gradientUnits="userSpaceOnUse">
<stop stop-color="#2760F0"/>
<stop offset="1" stop-color="#0BD0F9"/>
</linearGradient>
<linearGradient id="paint11_linear_4_3840" x1="90.4868" y1="34.2698" x2="114.419" y2="34.2698" gradientUnits="userSpaceOnUse">
<stop stop-color="#2760F0"/>
<stop offset="1" stop-color="#0BD0F9"/>
</linearGradient>
<linearGradient id="paint12_linear_4_3840" x1="90.4653" y1="67.6763" x2="114.42" y2="67.6763" gradientUnits="userSpaceOnUse">
<stop stop-color="#2760F0"/>
<stop offset="1" stop-color="#0BD0F9"/>
</linearGradient>
<linearGradient id="paint13_linear_4_3840" x1="90.4868" y1="106.543" x2="114.419" y2="106.543" gradientUnits="userSpaceOnUse">
<stop stop-color="#2760F0"/>
<stop offset="1" stop-color="#0BD0F9"/>
</linearGradient>
<linearGradient id="paint14_linear_4_3840" x1="117.765" y1="14.351" x2="138.374" y2="14.351" gradientUnits="userSpaceOnUse">
<stop stop-color="#2760F0"/>
<stop offset="1" stop-color="#0BD0F9"/>
</linearGradient>
<linearGradient id="paint15_linear_4_3840" x1="117.743" y1="28.5294" x2="138.374" y2="28.5294" gradientUnits="userSpaceOnUse">
<stop stop-color="#2760F0"/>
<stop offset="1" stop-color="#0BD0F9"/>
</linearGradient>
<linearGradient id="paint16_linear_4_3840" x1="117.765" y1="53.8432" x2="138.374" y2="53.8432" gradientUnits="userSpaceOnUse">
<stop stop-color="#2760F0"/>
<stop offset="1" stop-color="#0BD0F9"/>
</linearGradient>
<linearGradient id="paint17_linear_4_3840" x1="117.786" y1="86.8829" x2="138.374" y2="86.8829" gradientUnits="userSpaceOnUse">
<stop stop-color="#2760F0"/>
<stop offset="1" stop-color="#0BD0F9"/>
</linearGradient>
<linearGradient id="paint18_linear_4_3840" x1="35.9962" y1="8.0711" x2="57.8572" y2="8.0711" gradientUnits="userSpaceOnUse">
<stop stop-color="#2760F0"/>
<stop offset="1" stop-color="#0BD0F9"/>
</linearGradient>
<linearGradient id="paint19_linear_4_3840" x1="35.953" y1="16.1638" x2="57.8571" y2="16.1638" gradientUnits="userSpaceOnUse">
<stop stop-color="#2760F0"/>
<stop offset="1" stop-color="#0BD0F9"/>
</linearGradient>
<linearGradient id="paint20_linear_4_3840" x1="35.9531" y1="37.701" x2="57.8572" y2="37.701" gradientUnits="userSpaceOnUse">
<stop stop-color="#2760F0"/>
<stop offset="1" stop-color="#0BD0F9"/>
</linearGradient>
<linearGradient id="paint21_linear_4_3840" x1="35.9531" y1="69.1006" x2="57.8572" y2="69.1006" gradientUnits="userSpaceOnUse">
<stop stop-color="#2760F0"/>
<stop offset="1" stop-color="#0BD0F9"/>
</linearGradient>
<linearGradient id="paint22_linear_4_3840" x1="35.953" y1="105.593" x2="57.8572" y2="105.593" gradientUnits="userSpaceOnUse">
<stop stop-color="#2760F0"/>
<stop offset="1" stop-color="#0BD0F9"/>
</linearGradient>
<linearGradient id="paint23_linear_4_3840" x1="61.3964" y1="3.25864" x2="86.1491" y2="3.25864" gradientUnits="userSpaceOnUse">
<stop stop-color="#2760F0"/>
<stop offset="1" stop-color="#0BD0F9"/>
</linearGradient>
<linearGradient id="paint24_linear_4_3840" x1="61.3532" y1="19.6598" x2="86.1491" y2="19.6598" gradientUnits="userSpaceOnUse">
<stop stop-color="#2760F0"/>
<stop offset="1" stop-color="#0BD0F9"/>
</linearGradient>
<linearGradient id="paint25_linear_4_3840" x1="61.3316" y1="48.6423" x2="86.1491" y2="48.6423" gradientUnits="userSpaceOnUse">
<stop stop-color="#2760F0"/>
<stop offset="1" stop-color="#0BD0F9"/>
</linearGradient>
<linearGradient id="paint26_linear_4_3840" x1="61.3964" y1="86.3218" x2="86.1491" y2="86.3218" gradientUnits="userSpaceOnUse">
<stop stop-color="#2760F0"/>
<stop offset="1" stop-color="#0BD0F9"/>
</linearGradient>
<linearGradient id="paint27_linear_4_3840" x1="61.3532" y1="124.994" x2="86.1491" y2="124.994" gradientUnits="userSpaceOnUse">
<stop stop-color="#2760F0"/>
<stop offset="1" stop-color="#0BD0F9"/>
</linearGradient>
<linearGradient id="paint28_linear_4_3840" x1="2.59938e-05" y1="43.4414" x2="12.4519" y2="43.4414" gradientUnits="userSpaceOnUse">
<stop stop-color="#2760F0"/>
<stop offset="1" stop-color="#0BD0F9"/>
</linearGradient>
<linearGradient id="paint29_linear_4_3840" x1="-2.65725e-05" y1="48.0165" x2="12.4519" y2="48.0165" gradientUnits="userSpaceOnUse">
<stop stop-color="#2760F0"/>
<stop offset="1" stop-color="#0BD0F9"/>
</linearGradient>
<linearGradient id="paint30_linear_4_3840" x1="-5.60268e-05" y1="59.9505" x2="12.4519" y2="59.9505" gradientUnits="userSpaceOnUse">
<stop stop-color="#2760F0"/>
<stop offset="1" stop-color="#0BD0F9"/>
</linearGradient>
<linearGradient id="paint31_linear_4_3840" x1="-7.86377e-06" y1="77.927" x2="12.4519" y2="77.927" gradientUnits="userSpaceOnUse">
<stop stop-color="#2760F0"/>
<stop offset="1" stop-color="#0BD0F9"/>
</linearGradient>
<linearGradient id="paint32_linear_4_3840" x1="0.064778" y1="99.5938" x2="12.452" y2="99.5938" gradientUnits="userSpaceOnUse">
<stop stop-color="#2760F0"/>
<stop offset="1" stop-color="#0BD0F9"/>
</linearGradient>
<linearGradient id="paint33_linear_4_3840" x1="14.7395" y1="24.5585" x2="32.457" y2="24.5585" gradientUnits="userSpaceOnUse">
<stop stop-color="#2760F0"/>
<stop offset="1" stop-color="#0BD0F9"/>
</linearGradient>
<linearGradient id="paint34_linear_4_3840" x1="14.7395" y1="36.7299" x2="32.4571" y2="36.7299" gradientUnits="userSpaceOnUse">
<stop stop-color="#2760F0"/>
<stop offset="1" stop-color="#0BD0F9"/>
</linearGradient>
<linearGradient id="paint35_linear_4_3840" x1="14.7395" y1="58.5909" x2="32.457" y2="58.5909" gradientUnits="userSpaceOnUse">
<stop stop-color="#2760F0"/>
<stop offset="1" stop-color="#0BD0F9"/>
</linearGradient>
<linearGradient id="paint36_linear_4_3840" x1="14.7826" y1="87.3576" x2="32.457" y2="87.3576" gradientUnits="userSpaceOnUse">
<stop stop-color="#2760F0"/>
<stop offset="1" stop-color="#0BD0F9"/>
</linearGradient>
<linearGradient id="paint37_linear_4_3840" x1="14.7394" y1="116.966" x2="32.457" y2="116.966" gradientUnits="userSpaceOnUse">
<stop stop-color="#2760F0"/>
<stop offset="1" stop-color="#0BD0F9"/>
</linearGradient>
<clipPath id="clip0_4_3840">
<rect width="169.86" height="136" fill="white"/>
</clipPath>
</defs>
</svg>
