<svg width="19" height="20" viewBox="0 0 19 20" fill="none" xmlns="http://www.w3.org/2000/svg">
<g clip-path="url(#clip0_4_3833)">
<path d="M9.13938 5.44291C9.56084 5.53647 9.99346 5.59656 10.402 5.73132C11.1076 5.96394 11.7042 5.84119 12.2175 5.30471C12.6613 4.84205 13.1025 4.3751 13.5548 3.92188C13.9943 3.48154 14.1694 2.97853 14.0596 2.35278C13.9102 1.49785 14.2784 0.702997 14.9986 0.292696C15.7385 -0.127905 16.4802 -0.0952866 17.1797 0.389692C17.839 0.846344 18.1334 1.66952 17.9514 2.46265C17.7256 3.44634 16.76 4.11845 15.7411 3.96909C15.1282 3.87982 14.6321 4.05149 14.2115 4.49699C13.7643 4.97167 13.3085 5.43862 12.8527 5.90471C12.3351 6.43519 12.2046 7.03862 12.4836 7.72961C12.8973 8.75364 12.8613 9.76566 12.3866 10.7622C12.0724 11.4215 12.1557 12.0257 12.6278 12.5802C12.9806 12.994 13.3334 13.4069 13.6836 13.8223C14.1231 14.3433 14.6656 14.5313 15.342 14.3966C16.9342 14.0798 18.4364 15.0644 18.7299 16.5983C19.0329 18.1845 18.0235 19.6609 16.4355 19.9528C14.3651 20.333 12.5789 18.3133 13.269 16.3107C13.5669 15.4481 13.4364 14.7734 12.8158 14.1399C12.5274 13.8455 12.2716 13.5184 12.0106 13.1983C11.5153 12.5905 10.9033 12.4154 10.148 12.6292C8.05269 13.2223 5.95483 11.939 5.55054 9.83089C5.11707 7.57338 6.82865 5.49956 9.13852 5.44205L9.13938 5.44291Z" fill="white"/>
<path d="M8.51105 15.0275C9.43723 15.0352 10.1866 15.7983 10.1746 16.721C10.1625 17.6506 9.40547 18.3897 8.47585 18.3794C7.5471 18.3691 6.80289 17.612 6.81147 16.6858C6.82006 15.7622 7.58143 15.0197 8.51105 15.0275Z" fill="white"/>
<path d="M1.88195 9.2412C0.950615 9.23605 0.209842 8.4867 0.214993 7.55536C0.220143 6.62918 0.975508 5.88584 1.90598 5.89099C2.82787 5.89614 3.58752 6.66438 3.57637 7.58026C3.56521 8.51073 2.81413 9.24721 1.88195 9.2412Z" fill="white"/>
<path d="M11.3583 1.9133C11.3609 2.63347 10.7789 3.21631 10.0579 3.21716C9.33344 3.21802 8.75061 2.63862 8.75404 1.91931C8.75662 1.19141 9.33087 0.61459 10.0528 0.612873C10.7721 0.611156 11.3566 1.19313 11.3592 1.91244L11.3583 1.9133Z" fill="white"/>
</g>
<defs>
<clipPath id="clip0_4_3833">
<rect width="18.57" height="20" fill="white" transform="translate(0.214966)"/>
</clipPath>
</defs>
</svg>
